{"asset":{"version":"2.0","generator":"Blockbench 3.5.2 glTF exporter"},"scenes":[{"nodes":[0,1,2,3],"name":"blockbench_export"}],"scene":0,"nodes":[{"translation":[-0.4,1.2999999999999998,-2],"name":"ebaf4a0f-1fcf-09b6-4623-2fe983561b47","mesh":0},{"translation":[0,3,0],"name":"35537e47-b1a4-7860-8c4f-06f47b93dfc7","mesh":1},{"translation":[0,2,0],"name":"df0d8bd0-1d3f-83d3-ddca-d650381cd625","mesh":2},{"name":"db227c90-b457-0047-380e-946e9ef17cd7","mesh":3}],"bufferViews":[{"buffer":0,"byteOffset":0,"byteLength":432,"target":34962,"byteStride":12},{"buffer":0,"byteOffset":432,"byteLength":432,"target":34962,"byteStride":12},{"buffer":0,"byteOffset":864,"byteLength":288,"target":34962,"byteStride":8},{"buffer":0,"byteOffset":1152,"byteLength":12,"target":34963},{"buffer":0,"byteOffset":1164,"byteLength":12,"target":34963},{"buffer":0,"byteOffset":1176,"byteLength":12,"target":34963},{"buffer":0,"byteOffset":1188,"byteLength":12,"target":34963},{"buffer":0,"byteOffset":1200,"byteLength":12,"target":34963},{"buffer":0,"byteOffset":1212,"byteLength":12,"target":34963},{"buffer":0,"byteOffset":1224,"byteLength":432,"target":34962,"byteStride":12},{"buffer":0,"byteOffset":1656,"byteLength":432,"target":34962,"byteStride":12},{"buffer":0,"byteOffset":2088,"byteLength":288,"target":34962,"byteStride":8},{"buffer":0,"byteOffset":2376,"byteLength":12,"target":34963},{"buffer":0,"byteOffset":2388,"byteLength":12,"target":34963},{"buffer":0,"byteOffset":2400,"byteLength":12,"target":34963},{"buffer":0,"byteOffset":2412,"byteLength":12,"target":34963},{"buffer":0,"byteOffset":2424,"byteLength":12,"target":34963},{"buffer":0,"byteOffset":2436,"byteLength":12,"target":34963},{"buffer":0,"byteOffset":2448,"byteLength":432,"target":34962,"byteStride":12},{"buffer":0,"byteOffset":2880,"byteLength":432,"target":34962,"byteStride":12},{"buffer":0,"byteOffset":3312,"byteLength":288,"target":34962,"byteStride":8},{"buffer":0,"byteOffset":3600,"byteLength":12,"target":34963},{"buffer":0,"byteOffset":3612,"byteLength":12,"target":34963},{"buffer":0,"byteOffset":3624,"byteLength":12,"target":34963},{"buffer":0,"byteOffset":3636,"byteLength":12,"target":34963},{"buffer":0,"byteOffset":3648,"byteLength":12,"target":34963},{"buffer":0,"byteOffset":3660,"byteLength":12,"target":34963},{"buffer":0,"byteOffset":3672,"byteLength":432,"target":34962,"byteStride":12},{"buffer":0,"byteOffset":4104,"byteLength":432,"target":34962,"byteStride":12},{"buffer":0,"byteOffset":4536,"byteLength":288,"target":34962,"byteStride":8},{"buffer":0,"byteOffset":4824,"byteLength":12,"target":34963},{"buffer":0,"byteOffset":4836,"byteLength":12,"target":34963},{"buffer":0,"byteOffset":4848,"byteLength":12,"target":34963},{"buffer":0,"byteOffset":4860,"byteLength":12,"target":34963},{"buffer":0,"byteOffset":4872,"byteLength":12,"target":34963},{"buffer":0,"byteOffset":4884,"byteLength":12,"target":34963}],"buffers":[{"byteLength":4896,"uri":"data:application/octet-stream;base64,"}],"accessors":[{"bufferView":0,"componentType":5126,"count":36,"max":[0.8999999761581421,1.2999999523162842,1],"min":[0.10000000149011612,0,0.6000000238418579],"type":"VEC3"},{"bufferView":1,"componentType":5126,"count":36,"max":[1,1,1],"min":[-1,-1,-1],"type":"VEC3"},{"bufferView":2,"componentType":5126,"count":36,"max":[0.05000000074505806,1],"min":[0,0.918749988079071],"type":"VEC2"},{"bufferView":3,"componentType":5123,"count":6,"max":[5],"min":[0],"type":"SCALAR"},{"bufferView":4,"componentType":5123,"count":6,"max":[11],"min":[6],"type":"SCALAR"},{"bufferView":5,"componentType":5123,"count":6,"max":[17],"min":[12],"type":"SCALAR"},{"bufferView":6,"componentType":5123,"count":6,"max":[23],"min":[18],"type":"SCALAR"},{"bufferView":7,"componentType":5123,"count":6,"max":[29],"min":[24],"type":"SCALAR"},{"bufferView":8,"componentType":5123,"count":6,"max":[35],"min":[30],"type":"SCALAR"},{"bufferView":9,"componentType":5126,"count":36,"max":[3.0999999046325684,0.5,3.0999999046325684],"min":[-3.0999999046325684,0,-1.100000023841858],"type":"VEC3"},{"bufferView":10,"componentType":5126,"count":36,"max":[1,1,1],"min":[-1,-1,-1],"type":"VEC3"},{"bufferView":11,"componentType":5126,"count":36,"max":[0.38749998807907104,1],"min":[0,0.737500011920929],"type":"VEC2"},{"bufferView":12,"componentType":5123,"count":6,"max":[5],"min":[0],"type":"SCALAR"},{"bufferView":13,"componentType":5123,"count":6,"max":[11],"min":[6],"type":"SCALAR"},{"bufferView":14,"componentType":5123,"count":6,"max":[17],"min":[12],"type":"SCALAR"},{"bufferView":15,"componentType":5123,"count":6,"max":[23],"min":[18],"type":"SCALAR"},{"bufferView":16,"componentType":5123,"count":6,"max":[29],"min":[24],"type":"SCALAR"},{"bufferView":17,"componentType":5123,"count":6,"max":[35],"min":[30],"type":"SCALAR"},{"bufferView":18,"componentType":5126,"count":36,"max":[3.200000047683716,1.2999999523162842,3.200000047683716],"min":[-3.200000047683716,0,-1.2000000476837158],"type":"VEC3"},{"bufferView":19,"componentType":5126,"count":36,"max":[1,1,1],"min":[-1,-1,-1],"type":"VEC3"},{"bufferView":20,"componentType":5126,"count":36,"max":[0.4000000059604645,1],"min":[0,0.7250000238418579],"type":"VEC2"},{"bufferView":21,"componentType":5123,"count":6,"max":[5],"min":[0],"type":"SCALAR"},{"bufferView":22,"componentType":5123,"count":6,"max":[11],"min":[6],"type":"SCALAR"},{"bufferView":23,"componentType":5123,"count":6,"max":[17],"min":[12],"type":"SCALAR"},{"bufferView":24,"componentType":5123,"count":6,"max":[23],"min":[18],"type":"SCALAR"},{"bufferView":25,"componentType":5123,"count":6,"max":[29],"min":[24],"type":"SCALAR"},{"bufferView":26,"componentType":5123,"count":6,"max":[35],"min":[30],"type":"SCALAR"},{"bufferView":27,"componentType":5126,"count":36,"max":[3,2,3],"min":[-3,0,-1],"type":"VEC3"},{"bufferView":28,"componentType":5126,"count":36,"max":[1,1,1],"min":[-1,-1,-1],"type":"VEC3"},{"bufferView":29,"componentType":5126,"count":36,"max":[0.375,1],"min":[0,0.75],"type":"VEC2"},{"bufferView":30,"componentType":5123,"count":6,"max":[5],"min":[0],"type":"SCALAR"},{"bufferView":31,"componentType":5123,"count":6,"max":[11],"min":[6],"type":"SCALAR"},{"bufferView":32,"componentType":5123,"count":6,"max":[17],"min":[12],"type":"SCALAR"},{"bufferView":33,"componentType":5123,"count":6,"max":[23],"min":[18],"type":"SCALAR"},{"bufferView":34,"componentType":5123,"count":6,"max":[29],"min":[24],"type":"SCALAR"},{"bufferView":35,"componentType":5123,"count":6,"max":[35],"min":[30],"type":"SCALAR"}],"materials":[{"pbrMetallicRoughness":{"baseColorFactor":[0.7725490196078432,0.6509803921568628,0.9098039215686274,1],"metallicFactor":0,"roughnessFactor":1,"baseColorTexture":{"index":0}},"doubleSided":true},{"pbrMetallicRoughness":{"baseColorFactor":[0.6352941176470588,0.9215686274509803,1,1],"metallicFactor":0,"roughnessFactor":1,"baseColorTexture":{"index":0}},"doubleSided":true}],"textures":[{"sampler":0,"source":0}],"samplers":[{"magFilter":9728,"minFilter":9728,"wrapS":33071,"wrapT":33071}],"images":[{"mimeType":"image/png","uri":"data:image/png;base64,"}],"meshes":[{"primitives":[{"mode":4,"attributes":{"POSITION":0,"NORMAL":1,"TEXCOORD_0":2},"indices":3,"material":0},{"mode":4,"attributes":{"POSITION":0,"NORMAL":1,"TEXCOORD_0":2},"indices":4,"material":0},{"mode":4,"attributes":{"POSITION":0,"NORMAL":1,"TEXCOORD_0":2},"indices":5,"material":0},{"mode":4,"attributes":{"POSITION":0,"NORMAL":1,"TEXCOORD_0":2},"indices":6,"material":0},{"mode":4,"attributes":{"POSITION":0,"NORMAL":1,"TEXCOORD_0":2},"indices":7,"material":0},{"mode":4,"attributes":{"POSITION":0,"NORMAL":1,"TEXCOORD_0":2},"indices":8,"material":0}]},{"primitives":[{"mode":4,"attributes":{"POSITION":9,"NORMAL":10,"TEXCOORD_0":11},"indices":12,"material":1},{"mode":4,"attributes":{"POSITION":9,"NORMAL":10,"TEXCOORD_0":11},"indices":13,"material":1},{"mode":4,"attributes":{"POSITION":9,"NORMAL":10,"TEXCOORD_0":11},"indices":14,"material":1},{"mode":4,"attributes":{"POSITION":9,"NORMAL":10,"TEXCOORD_0":11},"indices":15,"material":1},{"mode":4,"attributes":{"POSITION":9,"NORMAL":10,"TEXCOORD_0":11},"indices":16,"material":1},{"mode":4,"attributes":{"POSITION":9,"NORMAL":10,"TEXCOORD_0":11},"indices":17,"material":1}]},{"primitives":[{"mode":4,"attributes":{"POSITION":18,"NORMAL":19,"TEXCOORD_0":20},"indices":21,"material":1},{"mode":4,"attributes":{"POSITION":18,"NORMAL":19,"TEXCOORD_0":20},"indices":22,"material":1},{"mode":4,"attributes":{"POSITION":18,"NORMAL":19,"TEXCOORD_0":20},"indices":23,"material":1},{"mode":4,"attributes":{"POSITION":18,"NORMAL":19,"TEXCOORD_0":20},"indices":24,"material":1},{"mode":4,"attributes":{"POSITION":18,"NORMAL":19,"TEXCOORD_0":20},"indices":25,"material":1},{"mode":4,"attributes":{"POSITION":18,"NORMAL":19,"TEXCOORD_0":20},"indices":26,"material":1}]},{"primitives":[{"mode":4,"attributes":{"POSITION":27,"NORMAL":28,"TEXCOORD_0":29},"indices":30,"material":1},{"mode":4,"attributes":{"POSITION":27,"NORMAL":28,"TEXCOORD_0":29},"indices":31,"material":1},{"mode":4,"attributes":{"POSITION":27,"NORMAL":28,"TEXCOORD_0":29},"indices":32,"material":1},{"mode":4,"attributes":{"POSITION":27,"NORMAL":28,"TEXCOORD_0":29},"indices":33,"material":1},{"mode":4,"attributes":{"POSITION":27,"NORMAL":28,"TEXCOORD_0":29},"indices":34,"material":1},{"mode":4,"attributes":{"POSITION":27,"NORMAL":28,"TEXCOORD_0":29},"indices":35,"material":1}]}]}