{"asset":{"version":"2.0","generator":"Blockbench 3.5.2 glTF exporter"},"scenes":[{"nodes":[0,1,2,3,4,5,6],"name":"blockbench_export"}],"scene":0,"nodes":[{"translation":[0,3,0],"name":"bc5d6c2a-f91e-9b2c-ad56-ed242c512d7c","mesh":0},{"rotation":[0,0,-0.13052619222005157,0.9914448613738104],"translation":[-0.25000000000000006,3.5500000000000016,0],"name":"e7f37244-8604-d7d7-189f-1c993981bea7","mesh":1},{"rotation":[0,0,0.13052619222005157,0.9914448613738104],"translation":[0.25000000000000006,3.5500000000000016,0],"name":"db88b40f-5197-1b44-64bc-eba3fb2674eb","mesh":2},{"rotation":[0,0,0.3826834323650898,0.9238795325112867],"translation":[0.425,8.800000000000008,0],"name":"544f0f62-4833-5b4a-6b09-3e2d08ada067","mesh":3},{"translation":[-0.5,3,0],"name":"d3de5659-8631-bb8f-d8d9-dc9e1e8a4ff4","mesh":4},{"translation":[-0.5,1,0],"name":"a4c6e515-68e1-f061-25d4-156b568d80c3","mesh":5},{"rotation":[0,0,0.3826834323650898,0.9238795325112867],"name":"4aa587a2-eafb-5c41-fe17-0e1d33d60a20","mesh":6}],"bufferViews":[{"buffer":0,"byteOffset":0,"byteLength":432,"target":34962,"byteStride":12},{"buffer":0,"byteOffset":432,"byteLength":432,"target":34962,"byteStride":12},{"buffer":0,"byteOffset":864,"byteLength":288,"target":34962,"byteStride":8},{"buffer":0,"byteOffset":1152,"byteLength":12,"target":34963},{"buffer":0,"byteOffset":1164,"byteLength":12,"target":34963},{"buffer":0,"byteOffset":1176,"byteLength":12,"target":34963},{"buffer":0,"byteOffset":1188,"byteLength":12,"target":34963},{"buffer":0,"byteOffset":1200,"byteLength":12,"target":34963},{"buffer":0,"byteOffset":1212,"byteLength":12,"target":34963},{"buffer":0,"byteOffset":1224,"byteLength":432,"target":34962,"byteStride":12},{"buffer":0,"byteOffset":1656,"byteLength":432,"target":34962,"byteStride":12},{"buffer":0,"byteOffset":2088,"byteLength":288,"target":34962,"byteStride":8},{"buffer":0,"byteOffset":2376,"byteLength":12,"target":34963},{"buffer":0,"byteOffset":2388,"byteLength":12,"target":34963},{"buffer":0,"byteOffset":2400,"byteLength":12,"target":34963},{"buffer":0,"byteOffset":2412,"byteLength":12,"target":34963},{"buffer":0,"byteOffset":2424,"byteLength":12,"target":34963},{"buffer":0,"byteOffset":2436,"byteLength":12,"target":34963},{"buffer":0,"byteOffset":2448,"byteLength":432,"target":34962,"byteStride":12},{"buffer":0,"byteOffset":2880,"byteLength":432,"target":34962,"byteStride":12},{"buffer":0,"byteOffset":3312,"byteLength":288,"target":34962,"byteStride":8},{"buffer":0,"byteOffset":3600,"byteLength":12,"target":34963},{"buffer":0,"byteOffset":3612,"byteLength":12,"target":34963},{"buffer":0,"byteOffset":3624,"byteLength":12,"target":34963},{"buffer":0,"byteOffset":3636,"byteLength":12,"target":34963},{"buffer":0,"byteOffset":3648,"byteLength":12,"target":34963},{"buffer":0,"byteOffset":3660,"byteLength":12,"target":34963},{"buffer":0,"byteOffset":3672,"byteLength":432,"target":34962,"byteStride":12},{"buffer":0,"byteOffset":4104,"byteLength":432,"target":34962,"byteStride":12},{"buffer":0,"byteOffset":4536,"byteLength":288,"target":34962,"byteStride":8},{"buffer":0,"byteOffset":4824,"byteLength":12,"target":34963},{"buffer":0,"byteOffset":4836,"byteLength":12,"target":34963},{"buffer":0,"byteOffset":4848,"byteLength":12,"target":34963},{"buffer":0,"byteOffset":4860,"byteLength":12,"target":34963},{"buffer":0,"byteOffset":4872,"byteLength":12,"target":34963},{"buffer":0,"byteOffset":4884,"byteLength":12,"target":34963},{"buffer":0,"byteOffset":4896,"byteLength":432,"target":34962,"byteStride":12},{"buffer":0,"byteOffset":5328,"byteLength":432,"target":34962,"byteStride":12},{"buffer":0,"byteOffset":5760,"byteLength":288,"target":34962,"byteStride":8},{"buffer":0,"byteOffset":6048,"byteLength":12,"target":34963},{"buffer":0,"byteOffset":6060,"byteLength":12,"target":34963},{"buffer":0,"byteOffset":6072,"byteLength":12,"target":34963},{"buffer":0,"byteOffset":6084,"byteLength":12,"target":34963},{"buffer":0,"byteOffset":6096,"byteLength":12,"target":34963},{"buffer":0,"byteOffset":6108,"byteLength":12,"target":34963},{"buffer":0,"byteOffset":6120,"byteLength":432,"target":34962,"byteStride":12},{"buffer":0,"byteOffset":6552,"byteLength":432,"target":34962,"byteStride":12},{"buffer":0,"byteOffset":6984,"byteLength":288,"target":34962,"byteStride":8},{"buffer":0,"byteOffset":7272,"byteLength":12,"target":34963},{"buffer":0,"byteOffset":7284,"byteLength":12,"target":34963},{"buffer":0,"byteOffset":7296,"byteLength":12,"target":34963},{"buffer":0,"byteOffset":7308,"byteLength":12,"target":34963},{"buffer":0,"byteOffset":7320,"byteLength":12,"target":34963},{"buffer":0,"byteOffset":7332,"byteLength":12,"target":34963},{"buffer":0,"byteOffset":7344,"byteLength":432,"target":34962,"byteStride":12},{"buffer":0,"byteOffset":7776,"byteLength":432,"target":34962,"byteStride":12},{"buffer":0,"byteOffset":8208,"byteLength":288,"target":34962,"byteStride":8},{"buffer":0,"byteOffset":8496,"byteLength":12,"target":34963},{"buffer":0,"byteOffset":8508,"byteLength":12,"target":34963},{"buffer":0,"byteOffset":8520,"byteLength":12,"target":34963},{"buffer":0,"byteOffset":8532,"byteLength":12,"target":34963},{"buffer":0,"byteOffset":8544,"byteLength":12,"target":34963},{"buffer":0,"byteOffset":8556,"byteLength":12,"target":34963}],"buffers":[{"byteLength":8568,"uri":"data:application/octet-stream;base64,"}],"accessors":[{"bufferView":0,"componentType":5126,"count":36,"max":[1.75,0.75,1.25],"min":[-1.75,-0.25,-0.25],"type":"VEC3"},{"bufferView":1,"componentType":5126,"count":36,"max":[1,1,1],"min":[-1,-1,-1],"type":"VEC3"},{"bufferView":2,"componentType":5126,"count":36,"max":[0.21875,1],"min":[0,0.90625],"type":"VEC2"},{"bufferView":3,"componentType":5123,"count":6,"max":[5],"min":[0],"type":"SCALAR"},{"bufferView":4,"componentType":5123,"count":6,"max":[11],"min":[6],"type":"SCALAR"},{"bufferView":5,"componentType":5123,"count":6,"max":[17],"min":[12],"type":"SCALAR"},{"bufferView":6,"componentType":5123,"count":6,"max":[23],"min":[18],"type":"SCALAR"},{"bufferView":7,"componentType":5123,"count":6,"max":[29],"min":[24],"type":"SCALAR"},{"bufferView":8,"componentType":5123,"count":6,"max":[35],"min":[30],"type":"SCALAR"},{"bufferView":9,"componentType":5126,"count":36,"max":[2.1500000953674316,1.149999976158142,1.25],"min":[1.25,-0.25,-0.25],"type":"VEC3"},{"bufferView":10,"componentType":5126,"count":36,"max":[1,1,1],"min":[-1,-1,-1],"type":"VEC3"},{"bufferView":11,"componentType":5126,"count":36,"max":[0.09375,1],"min":[0,0.90625],"type":"VEC2"},{"bufferView":12,"componentType":5123,"count":6,"max":[5],"min":[0],"type":"SCALAR"},{"bufferView":13,"componentType":5123,"count":6,"max":[11],"min":[6],"type":"SCALAR"},{"bufferView":14,"componentType":5123,"count":6,"max":[17],"min":[12],"type":"SCALAR"},{"bufferView":15,"componentType":5123,"count":6,"max":[23],"min":[18],"type":"SCALAR"},{"bufferView":16,"componentType":5123,"count":6,"max":[29],"min":[24],"type":"SCALAR"},{"bufferView":17,"componentType":5123,"count":6,"max":[35],"min":[30],"type":"SCALAR"},{"bufferView":18,"componentType":5126,"count":36,"max":[-1.25,1.149999976158142,1.25],"min":[-2.1500000953674316,-0.25,-0.25],"type":"VEC3"},{"bufferView":19,"componentType":5126,"count":36,"max":[1,1,1],"min":[-1,-1,-1],"type":"VEC3"},{"bufferView":20,"componentType":5126,"count":36,"max":[0.1875,1],"min":[0.05624999850988388,0.90625],"type":"VEC2"},{"bufferView":21,"componentType":5123,"count":6,"max":[5],"min":[0],"type":"SCALAR"},{"bufferView":22,"componentType":5123,"count":6,"max":[11],"min":[6],"type":"SCALAR"},{"bufferView":23,"componentType":5123,"count":6,"max":[17],"min":[12],"type":"SCALAR"},{"bufferView":24,"componentType":5123,"count":6,"max":[23],"min":[18],"type":"SCALAR"},{"bufferView":25,"componentType":5123,"count":6,"max":[29],"min":[24],"type":"SCALAR"},{"bufferView":26,"componentType":5123,"count":6,"max":[35],"min":[30],"type":"SCALAR"},{"bufferView":27,"componentType":5126,"count":36,"max":[1.399999976158142,2,1],"min":[0.15000000596046448,0.75,0],"type":"VEC3"},{"bufferView":28,"componentType":5126,"count":36,"max":[1,1,1],"min":[-1,-1,-1],"type":"VEC3"},{"bufferView":29,"componentType":5126,"count":36,"max":[0.078125,1],"min":[0,0.921875],"type":"VEC2"},{"bufferView":30,"componentType":5123,"count":6,"max":[5],"min":[0],"type":"SCALAR"},{"bufferView":31,"componentType":5123,"count":6,"max":[11],"min":[6],"type":"SCALAR"},{"bufferView":32,"componentType":5123,"count":6,"max":[17],"min":[12],"type":"SCALAR"},{"bufferView":33,"componentType":5123,"count":6,"max":[23],"min":[18],"type":"SCALAR"},{"bufferView":34,"componentType":5123,"count":6,"max":[29],"min":[24],"type":"SCALAR"},{"bufferView":35,"componentType":5123,"count":6,"max":[35],"min":[30],"type":"SCALAR"},{"bufferView":36,"componentType":5126,"count":36,"max":[1.399999976158142,7.300000190734863,1],"min":[-0.4000000059604645,0,0],"type":"VEC3"},{"bufferView":37,"componentType":5126,"count":36,"max":[1,1,1],"min":[-1,-1,-1],"type":"VEC3"},{"bufferView":38,"componentType":5126,"count":36,"max":[0.11249999701976776,1],"min":[0,0.543749988079071],"type":"VEC2"},{"bufferView":39,"componentType":5123,"count":6,"max":[5],"min":[0],"type":"SCALAR"},{"bufferView":40,"componentType":5123,"count":6,"max":[11],"min":[6],"type":"SCALAR"},{"bufferView":41,"componentType":5123,"count":6,"max":[17],"min":[12],"type":"SCALAR"},{"bufferView":42,"componentType":5123,"count":6,"max":[23],"min":[18],"type":"SCALAR"},{"bufferView":43,"componentType":5123,"count":6,"max":[29],"min":[24],"type":"SCALAR"},{"bufferView":44,"componentType":5123,"count":6,"max":[35],"min":[30],"type":"SCALAR"},{"bufferView":45,"componentType":5126,"count":36,"max":[1.100000023841858,1.899999976158142,1],"min":[-0.10000000149011612,0,0],"type":"VEC3"},{"bufferView":46,"componentType":5126,"count":36,"max":[1,1,1],"min":[-1,-1,-1],"type":"VEC3"},{"bufferView":47,"componentType":5126,"count":36,"max":[0.07500000298023224,1],"min":[0,0.8812500238418579],"type":"VEC2"},{"bufferView":48,"componentType":5123,"count":6,"max":[5],"min":[0],"type":"SCALAR"},{"bufferView":49,"componentType":5123,"count":6,"max":[11],"min":[6],"type":"SCALAR"},{"bufferView":50,"componentType":5123,"count":6,"max":[17],"min":[12],"type":"SCALAR"},{"bufferView":51,"componentType":5123,"count":6,"max":[23],"min":[18],"type":"SCALAR"},{"bufferView":52,"componentType":5123,"count":6,"max":[29],"min":[24],"type":"SCALAR"},{"bufferView":53,"componentType":5123,"count":6,"max":[35],"min":[30],"type":"SCALAR"},{"bufferView":54,"componentType":5126,"count":36,"max":[1.25,1.25,1.25],"min":[-0.25,-0.25,-0.25],"type":"VEC3"},{"bufferView":55,"componentType":5126,"count":36,"max":[1,1,1],"min":[-1,-1,-1],"type":"VEC3"},{"bufferView":56,"componentType":5126,"count":36,"max":[0.09375,1],"min":[0,0.90625],"type":"VEC2"},{"bufferView":57,"componentType":5123,"count":6,"max":[5],"min":[0],"type":"SCALAR"},{"bufferView":58,"componentType":5123,"count":6,"max":[11],"min":[6],"type":"SCALAR"},{"bufferView":59,"componentType":5123,"count":6,"max":[17],"min":[12],"type":"SCALAR"},{"bufferView":60,"componentType":5123,"count":6,"max":[23],"min":[18],"type":"SCALAR"},{"bufferView":61,"componentType":5123,"count":6,"max":[29],"min":[24],"type":"SCALAR"},{"bufferView":62,"componentType":5123,"count":6,"max":[35],"min":[30],"type":"SCALAR"}],"materials":[{"pbrMetallicRoughness":{"baseColorFactor":[1,0.9725490196078431,0.6,1],"metallicFactor":0,"roughnessFactor":1,"baseColorTexture":{"index":0}},"doubleSided":true},{"pbrMetallicRoughness":{"baseColorFactor":[0.6352941176470588,0.9215686274509803,1,1],"metallicFactor":0,"roughnessFactor":1,"baseColorTexture":{"index":0}},"doubleSided":true},{"pbrMetallicRoughness":{"baseColorFactor":[0.7411764705882353,1,0.6509803921568628,1],"metallicFactor":0,"roughnessFactor":1,"baseColorTexture":{"index":0}},"doubleSided":true}],"textures":[{"sampler":0,"source":0}],"samplers":[{"magFilter":9728,"minFilter":9728,"wrapS":33071,"wrapT":33071}],"images":[{"mimeType":"image/png","uri":"data:image/png;base64,"}],"meshes":[{"primitives":[{"mode":4,"attributes":{"POSITION":0,"NORMAL":1,"TEXCOORD_0":2},"indices":3,"material":0},{"mode":4,"attributes":{"POSITION":0,"NORMAL":1,"TEXCOORD_0":2},"indices":4,"material":0},{"mode":4,"attributes":{"POSITION":0,"NORMAL":1,"TEXCOORD_0":2},"indices":5,"material":0},{"mode":4,"attributes":{"POSITION":0,"NORMAL":1,"TEXCOORD_0":2},"indices":6,"material":0},{"mode":4,"attributes":{"POSITION":0,"NORMAL":1,"TEXCOORD_0":2},"indices":7,"material":0},{"mode":4,"attributes":{"POSITION":0,"NORMAL":1,"TEXCOORD_0":2},"indices":8,"material":0}]},{"primitives":[{"mode":4,"attributes":{"POSITION":9,"NORMAL":10,"TEXCOORD_0":11},"indices":12,"material":0},{"mode":4,"attributes":{"POSITION":9,"NORMAL":10,"TEXCOORD_0":11},"indices":13,"material":0},{"mode":4,"attributes":{"POSITION":9,"NORMAL":10,"TEXCOORD_0":11},"indices":14,"material":0},{"mode":4,"attributes":{"POSITION":9,"NORMAL":10,"TEXCOORD_0":11},"indices":15,"material":0},{"mode":4,"attributes":{"POSITION":9,"NORMAL":10,"TEXCOORD_0":11},"indices":16,"material":0},{"mode":4,"attributes":{"POSITION":9,"NORMAL":10,"TEXCOORD_0":11},"indices":17,"material":0}]},{"primitives":[{"mode":4,"attributes":{"POSITION":18,"NORMAL":19,"TEXCOORD_0":20},"indices":21,"material":0},{"mode":4,"attributes":{"POSITION":18,"NORMAL":19,"TEXCOORD_0":20},"indices":22,"material":0},{"mode":4,"attributes":{"POSITION":18,"NORMAL":19,"TEXCOORD_0":20},"indices":23,"material":0},{"mode":4,"attributes":{"POSITION":18,"NORMAL":19,"TEXCOORD_0":20},"indices":24,"material":0},{"mode":4,"attributes":{"POSITION":18,"NORMAL":19,"TEXCOORD_0":20},"indices":25,"material":0},{"mode":4,"attributes":{"POSITION":18,"NORMAL":19,"TEXCOORD_0":20},"indices":26,"material":0}]},{"primitives":[{"mode":4,"attributes":{"POSITION":27,"NORMAL":28,"TEXCOORD_0":29},"indices":30,"material":1},{"mode":4,"attributes":{"POSITION":27,"NORMAL":28,"TEXCOORD_0":29},"indices":31,"material":1},{"mode":4,"attributes":{"POSITION":27,"NORMAL":28,"TEXCOORD_0":29},"indices":32,"material":1},{"mode":4,"attributes":{"POSITION":27,"NORMAL":28,"TEXCOORD_0":29},"indices":33,"material":1},{"mode":4,"attributes":{"POSITION":27,"NORMAL":28,"TEXCOORD_0":29},"indices":34,"material":1},{"mode":4,"attributes":{"POSITION":27,"NORMAL":28,"TEXCOORD_0":29},"indices":35,"material":1}]},{"primitives":[{"mode":4,"attributes":{"POSITION":36,"NORMAL":37,"TEXCOORD_0":38},"indices":39,"material":1},{"mode":4,"attributes":{"POSITION":36,"NORMAL":37,"TEXCOORD_0":38},"indices":40,"material":1},{"mode":4,"attributes":{"POSITION":36,"NORMAL":37,"TEXCOORD_0":38},"indices":41,"material":1},{"mode":4,"attributes":{"POSITION":36,"NORMAL":37,"TEXCOORD_0":38},"indices":42,"material":1},{"mode":4,"attributes":{"POSITION":36,"NORMAL":37,"TEXCOORD_0":38},"indices":43,"material":1},{"mode":4,"attributes":{"POSITION":36,"NORMAL":37,"TEXCOORD_0":38},"indices":44,"material":1}]},{"primitives":[{"mode":4,"attributes":{"POSITION":45,"NORMAL":46,"TEXCOORD_0":47},"indices":48,"material":2},{"mode":4,"attributes":{"POSITION":45,"NORMAL":46,"TEXCOORD_0":47},"indices":49,"material":2},{"mode":4,"attributes":{"POSITION":45,"NORMAL":46,"TEXCOORD_0":47},"indices":50,"material":2},{"mode":4,"attributes":{"POSITION":45,"NORMAL":46,"TEXCOORD_0":47},"indices":51,"material":2},{"mode":4,"attributes":{"POSITION":45,"NORMAL":46,"TEXCOORD_0":47},"indices":52,"material":2},{"mode":4,"attributes":{"POSITION":45,"NORMAL":46,"TEXCOORD_0":47},"indices":53,"material":2}]},{"primitives":[{"mode":4,"attributes":{"POSITION":54,"NORMAL":55,"TEXCOORD_0":56},"indices":57,"material":0},{"mode":4,"attributes":{"POSITION":54,"NORMAL":55,"TEXCOORD_0":56},"indices":58,"material":0},{"mode":4,"attributes":{"POSITION":54,"NORMAL":55,"TEXCOORD_0":56},"indices":59,"material":0},{"mode":4,"attributes":{"POSITION":54,"NORMAL":55,"TEXCOORD_0":56},"indices":60,"material":0},{"mode":4,"attributes":{"POSITION":54,"NORMAL":55,"TEXCOORD_0":56},"indices":61,"material":0},{"mode":4,"attributes":{"POSITION":54,"NORMAL":55,"TEXCOORD_0":56},"indices":62,"material":0}]}]}